<?xml version="1.0" standalone="no"?>
<!DOCTYPE svg PUBLIC "-//W3C//DTD SVG 20010904//EN"
 "http://www.w3.org/TR/2001/REC-SVG-20010904/DTD/svg10.dtd">
<svg version="1.0" xmlns="http://www.w3.org/2000/svg"
 width="512.000000pt" height="512.000000pt" viewBox="0 0 512.000000 512.000000"
 preserveAspectRatio="xMidYMid meet">
<metadata>
Created by potrace 1.11, written by Peter Selinger 2001-2013
</metadata>
<g transform="translate(0.000000,512.000000) scale(0.100000,-0.100000)"
fill="#000000" stroke="none">
<path d="M3840 3223 c-180 -30 -280 -165 -280 -378 l0 -64 -127 -3 -128 -3 -3
-57 -3 -58 131 0 130 0 0 -390 0 -390 75 0 75 0 0 390 0 390 190 0 190 0 0 65
0 65 -190 0 -190 0 0 50 c0 121 37 201 110 238 58 29 198 31 278 3 37 -13 55
-15 58 -7 14 39 34 99 34 101 0 7 -97 34 -154 44 -58 11 -146 12 -196 4z"/>
<path d="M1593 2795 c-105 -23 -209 -94 -285 -193 l-25 -34 -7 103 c-3 57 -10
107 -15 112 -4 4 -32 7 -62 5 l-54 -3 -3 -452 -2 -453 80 0 80 0 0 268 0 268
30 47 c101 160 273 235 438 193 35 -9 65 -16 66 -16 2 0 11 28 21 62 21 75 16
80 -79 97 -78 14 -105 13 -183 -4z"/>
<path d="M2485 2798 c-136 -26 -260 -123 -322 -253 -32 -68 -37 -88 -41 -177
-7 -149 16 -231 95 -340 127 -174 432 -224 662 -108 33 16 62 34 66 39 4 8
-26 83 -40 99 -2 2 -25 -8 -52 -21 -88 -45 -158 -60 -253 -55 -144 9 -238 64
-289 171 -16 34 -32 79 -36 100 l-6 37 362 0 362 0 -5 113 c-4 100 -8 120 -35
179 -57 121 -139 185 -270 213 -76 16 -125 17 -198 3z m220 -137 c77 -35 145
-142 145 -228 l0 -23 -286 0 -286 0 6 32 c18 91 84 174 170 214 66 31 190 33
251 5z"/>
</g>
</svg>
